<svg width="25" height="25" viewBox="0 0 25 25" fill="none" xmlns="http://www.w3.org/2000/svg">
<path d="M10.3705 7.28176C9.32981 7.28176 8.47965 6.43159 8.47965 5.39088C8.47965 4.35016 9.32981 3.5 10.3705 3.5C11.4112 3.5 12.2614 4.35016 12.2614 5.39088V7.28176H10.3705Z" fill="white"/>
<path d="M5.636 16.7655C6.67671 16.7655 7.52687 15.9153 7.52687 14.8746V12.9837H5.636C4.59528 12.9837 3.74512 13.8339 3.74512 14.8746C3.74512 15.9153 4.59528 16.7655 5.636 16.7655Z" fill="white"/>
<path d="M10.3705 12.9837C9.32981 12.9837 8.47965 13.8339 8.47965 14.8746V19.6091C8.47965 20.6498 9.32981 21.5 10.3705 21.5C11.4112 21.5 12.2614 20.6498 12.2614 19.6091V14.8746C12.2614 13.8339 11.4112 12.9837 10.3705 12.9837Z" fill="white"/>
<path d="M12.2614 10.1254C12.2614 9.08469 11.4112 8.23453 10.3705 8.23453H5.636C4.59528 8.23453 3.74512 9.08469 3.74512 10.1254C3.74512 11.1661 4.59528 12.0163 5.636 12.0163H10.3705C11.4112 12.0163 12.2614 11.1661 12.2614 10.1254Z" fill="white"/>
<path d="M17.9634 10.1254C17.9634 9.08469 18.8135 8.23453 19.8542 8.23453C20.8949 8.23453 21.7451 9.08469 21.7451 10.1254C21.7451 11.1661 20.8949 12.0163 19.8542 12.0163H17.9634V10.1254Z" fill="white"/>
<path d="M15.1197 12.0163C16.1604 12.0163 17.0106 11.1661 17.0106 10.1254V5.39088C17.0106 4.35016 16.1604 3.5 15.1197 3.5C14.079 3.5 13.2288 4.35016 13.2288 5.39088V10.1254C13.2288 11.1661 14.079 12.0163 15.1197 12.0163Z" fill="white"/>
<path d="M15.1197 17.7183C16.1604 17.7183 17.0106 18.5684 17.0106 19.6091C17.0106 20.6498 16.1604 21.5 15.1197 21.5C14.079 21.5 13.2288 20.6498 13.2288 19.6091V17.7183H15.1197Z" fill="white"/>
<path d="M13.2288 14.8746C13.2288 15.9153 14.079 16.7655 15.1197 16.7655H19.8542C20.8949 16.7655 21.7451 15.9153 21.7451 14.8746C21.7451 13.8339 20.8949 12.9837 19.8542 12.9837H15.1197C14.079 12.9837 13.2288 13.8339 13.2288 14.8746Z" fill="white"/>
</svg>
