<svg width="25" height="25" viewBox="0 0 25 25" fill="none" xmlns="http://www.w3.org/2000/svg">
<path d="M12.7451 2.5C7.22236 2.5 2.74512 6.97723 2.74512 12.5001C2.74512 18.0231 7.22236 22.5 12.7451 22.5C18.2684 22.5 22.7451 18.0231 22.7451 12.5001C22.7451 6.97759 18.2685 2.5 12.7451 2.5ZM17.331 16.923C17.1518 17.2167 16.7673 17.3099 16.4736 17.1295C14.1257 15.6954 11.17 15.3706 7.68914 16.1659C7.35371 16.2423 7.01936 16.0321 6.94294 15.6966C6.86615 15.361 7.07548 15.0266 7.41175 14.9502C11.221 14.0796 14.4885 14.4546 17.1244 16.0656C17.4181 16.2459 17.5113 16.6292 17.331 16.923ZM18.5549 14.1997C18.3293 14.5669 17.8492 14.6827 17.4826 14.457C14.7946 12.8044 10.6973 12.326 7.51791 13.2911C7.10558 13.4156 6.67008 13.1832 6.54493 12.7716C6.42075 12.3593 6.65324 11.9246 7.06486 11.7992C10.6965 10.6973 15.2114 11.231 18.2982 13.1279C18.6648 13.3536 18.7806 13.8336 18.5549 14.1997ZM18.66 11.3643C15.4371 9.44996 10.1197 9.27394 7.04253 10.2079C6.5484 10.3578 6.02585 10.0788 5.87611 9.58466C5.72636 9.09028 6.00507 8.56808 6.49956 8.41785C10.0319 7.34551 15.904 7.55269 19.6146 9.75554C20.06 10.0193 20.2057 10.5934 19.9418 11.0372C19.6791 11.4817 19.103 11.6282 18.66 11.3643Z" fill="white"/>
</svg>
