<svg width="25" height="25" viewBox="0 0 25 25" fill="none" xmlns="http://www.w3.org/2000/svg">
<path d="M13.6333 11.5352C14.1661 11.5352 14.5981 11.9671 14.5981 12.4999C14.5981 13.0328 14.1661 13.4647 13.6333 13.4647C13.1005 13.4647 12.6685 13.0328 12.6685 12.4999C12.6685 11.9671 13.1005 11.5352 13.6333 11.5352Z" fill="white"/>
<path d="M10.2336 11.5352C10.7664 11.5352 11.1984 11.9671 11.1984 12.4999C11.1984 13.0328 10.7664 13.4647 10.2336 13.4647C9.70076 13.4647 9.26881 13.0328 9.26881 12.4999C9.26881 11.9671 9.70076 11.5352 10.2336 11.5352Z" fill="white"/>
<path fill-rule="evenodd" clip-rule="evenodd" d="M22.4949 15.6404C22.6592 14.6179 22.7451 13.5694 22.7451 12.5C22.7451 11.4306 22.6592 10.3821 22.4949 9.35964C21.9513 5.97491 19.2702 3.2938 15.8854 2.75018C14.863 2.58596 13.8144 2.5 12.7451 2.5C11.6758 2.5 10.6272 2.58596 9.60479 2.75018C6.22006 3.2938 3.53893 5.97491 2.9953 9.35964C2.83108 10.3821 2.74512 11.4306 2.74512 12.5C2.74512 13.5694 2.83108 14.6179 2.9953 15.6404C3.53893 19.0251 6.22005 21.7062 9.60479 22.2498C10.6272 22.414 11.6758 22.5 12.7451 22.5C13.8144 22.5 14.863 22.414 15.8854 22.2498C19.2702 21.7062 21.9513 19.0251 22.4949 15.6404ZM6.23686 14.0313H8.71751C8.71751 13.693 8.44326 13.4188 8.10495 13.4188H6.68053L8.39879 11.7005C8.52185 11.5774 8.55832 11.394 8.4917 11.2332C8.42509 11.0724 8.26959 10.9685 8.09556 10.9685H5.80786C5.80786 11.3069 6.08211 11.5811 6.42042 11.5811H7.65192L5.93367 13.2993C5.8106 13.4224 5.77411 13.6058 5.84071 13.7666C5.90731 13.9274 6.06282 14.0313 6.23686 14.0313ZM18.4878 10.9226C19.1464 10.9226 19.6823 11.4584 19.6823 12.1171V14.0313C19.344 14.0313 19.0697 13.7571 19.0697 13.4188V12.1171C19.0697 11.7962 18.8087 11.5352 18.4878 11.5352C18.1669 11.5352 17.9059 11.7962 17.9059 12.1171V14.0313C17.5676 14.0313 17.2933 13.7571 17.2933 13.4188V12.1171C17.2933 11.7962 17.0323 11.5352 16.7114 11.5352C16.3905 11.5352 16.1295 11.7962 16.1295 12.1171V13.4188C16.1295 13.7571 15.8552 14.0313 15.5169 14.0313V12.1171C15.5169 11.4584 16.0527 10.9226 16.7114 10.9226C17.0637 10.9226 17.3808 11.076 17.5996 11.3194C17.8184 11.076 18.1355 10.9226 18.4878 10.9226ZM13.6333 14.0773C14.5044 14.0773 15.2106 13.3711 15.2106 12.4999C15.2106 11.6288 14.5044 10.9226 13.6333 10.9226C12.7621 10.9226 12.0559 11.6288 12.0559 12.4999C12.0559 13.3711 12.7621 14.0773 13.6333 14.0773ZM10.2336 14.0773C11.1047 14.0773 11.8109 13.3711 11.8109 12.4999C11.8109 11.6288 11.1047 10.9226 10.2336 10.9226C9.36245 10.9226 8.65625 11.6288 8.65625 12.4999C8.65625 13.3711 9.36245 14.0773 10.2336 14.0773Z" fill="white"/>
</svg>
