<svg width="25" height="24" viewBox="0 0 25 24" fill="none" xmlns="http://www.w3.org/2000/svg">
<path fill-rule="evenodd" clip-rule="evenodd" d="M5.53185 8.20457C5.42166 8.61685 5.36279 9.05086 5.36279 9.5C5.36279 12.2614 7.60137 14.5 10.3628 14.5C10.7266 14.5 11.0797 14.4614 11.4189 14.3886C12.2032 14.2202 13.1334 14.3919 13.81 15.0686L18.095 19.3536C18.2903 19.5488 18.6069 19.5488 18.8022 19.3536L20.2164 17.9393C20.4116 17.7441 20.4116 17.4275 20.2164 17.2322L15.9314 12.9472C15.2547 12.2706 15.083 11.3404 15.2514 10.5561C15.3242 10.2169 15.3628 9.86382 15.3628 9.5C15.3628 6.73858 13.1242 4.5 10.3628 4.5C9.91366 4.5 9.47967 4.55887 9.0674 4.66905L12.1307 7.73238C13.107 8.70869 13.107 10.2916 12.1307 11.2679C11.1544 12.2442 9.5715 12.2442 8.59519 11.2679L5.53185 8.20457ZM4.51273 6.66345C4.09634 7.52061 3.86279 8.48303 3.86279 9.5C3.86279 13.0899 6.77294 16 10.3628 16C10.8331 16 11.2918 15.95 11.7337 15.8552C12.0984 15.7769 12.4857 15.8655 12.7494 16.1292L17.0344 20.4142C17.8154 21.1953 19.0818 21.1953 19.8628 20.4142L21.277 19C22.0581 18.219 22.0581 16.9526 21.277 16.1716L16.992 11.8866C16.7283 11.6229 16.6397 11.2356 16.718 10.8709C16.8128 10.429 16.8628 9.97031 16.8628 9.5C16.8628 5.91015 13.9526 3 10.3628 3C9.34584 3 8.38343 3.23354 7.52628 3.64992C6.97463 3.91789 6.9195 4.64247 7.35316 5.07613L11.0701 8.79304C11.4606 9.18356 11.4606 9.81673 11.0701 10.2073C10.6795 10.5978 10.0464 10.5978 9.65585 10.2073L5.93894 6.49033C5.50528 6.05668 4.7807 6.11181 4.51273 6.66345Z" fill="white"/>
</svg>
